HIERARCHY
ROOT root
{
	OFFSET	0	13.1	24.9
	CHANNELS 6  Xposition Yposition Zposition Xrotation Yrotation Zrotation
	JOINT spine_1
	{
		OFFSET	0	9.99999	0
		CHANNELS 3  Xrotation Yrotation Zrotation
		JOINT spine_2
		{
			OFFSET	0	112	-10
			CHANNELS 3  Xrotation Yrotation Zrotation
			JOINT spine_3
			{
				OFFSET	0	206.5	19.3
				CHANNELS 3  Xrotation Yrotation Zrotation
				JOINT spine_4
				{
					OFFSET	0	110.4	14.6
					CHANNELS 3  Xrotation Yrotation Zrotation
					JOINT neck_1
					{
						OFFSET	0	71.8	-50.3
						CHANNELS 3  Xrotation Yrotation Zrotation
						JOINT neck_2
						{
							OFFSET	0	86.2	-25.8
							CHANNELS 3  Xrotation Yrotation Zrotation
							JOINT head_ee
							{
								OFFSET	0	179.8	-8.7
								CHANNELS 3  Xrotation Yrotation Zrotation
								End Site
								{
									OFFSET	1	0	0
								}
							}
						}
					}
					JOINT left_clavicle
					{
						OFFSET	-43.2	22.4	-70.8
						CHANNELS 3  Xrotation Yrotation Zrotation
						JOINT left_shoulder
						{
							OFFSET	-93.9	-5.79999	48.7
							CHANNELS 3  Xrotation Yrotation Zrotation
							JOINT left_elbow
							{
								OFFSET	-291.4	-30.8	15.2
								CHANNELS 3  Xrotation Yrotation Zrotation
								JOINT left_lowarm_twist
								{
									OFFSET	-110.7	-3.89999	13.6
									CHANNELS 3  Xrotation Yrotation Zrotation
									JOINT left_hand
									{
										OFFSET	-110.7	-3.89999	13.6
										CHANNELS 3  Xrotation Yrotation Zrotation
										JOINT left_ee
										{
											OFFSET	-80.8	-5.10001	12.1
											CHANNELS 3  Xrotation Yrotation Zrotation
											End Site
											{
												OFFSET	1	0	0
											}
										}
									}
								}
							}
						}
					}
					JOINT right_clavicle
					{
						OFFSET	43.2	22.4	-70.8
						CHANNELS 3  Xrotation Yrotation Zrotation
						JOINT right_shoulder
						{
							OFFSET	93.9	-5.79999	48.7
							CHANNELS 3  Xrotation Yrotation Zrotation
							JOINT right_elbow
							{
								OFFSET	291.4	-30.8	15.2
								CHANNELS 3  Xrotation Yrotation Zrotation
								JOINT right_lowarm_twist
								{
									OFFSET	110.7	-3.89999	13.6
									CHANNELS 3  Xrotation Yrotation Zrotation
									JOINT right_hand
									{
										OFFSET	110.7	-3.89999	13.6
										CHANNELS 3  Xrotation Yrotation Zrotation
										JOINT right_ee
										{
											OFFSET	80.8	-5.10001	12.1
											CHANNELS 3  Xrotation Yrotation Zrotation
											End Site
											{
												OFFSET	1	0	0
											}
										}
									}
								}
							}
						}
					}
				}
			}
		}
	}
	JOINT left_hip
	{
		OFFSET	-82.8	-127.5	0.300001
		CHANNELS 3  Xrotation Yrotation Zrotation
		JOINT left_knee
		{
			OFFSET	-28.2	-396.7	2.2
			CHANNELS 3  Xrotation Yrotation Zrotation
			JOINT left_ankle
			{
				OFFSET	-11.7	-411.3	35.4
				CHANNELS 3  Xrotation Yrotation Zrotation
				JOINT left_toes
				{
					OFFSET	0	-60	-88.6
					CHANNELS 3  Xrotation Yrotation Zrotation
					JOINT left_foot_ee
					{
						OFFSET	-22.5	-16.5	-42.2
						CHANNELS 3  Xrotation Yrotation Zrotation
						End Site
						{
							OFFSET	1	0	0
						}
					}
				}
			}
		}
	}
	JOINT right_hip
	{
		OFFSET	82.8	-127.5	0.300001
		CHANNELS 3  Xrotation Yrotation Zrotation
		JOINT right_knee
		{
			OFFSET	28.2	-396.7	2.2
			CHANNELS 3  Xrotation Yrotation Zrotation
			JOINT right_ankle
			{
				OFFSET	11.7	-411.3	35.4
				CHANNELS 3  Xrotation Yrotation Zrotation
				JOINT right_toes
				{
					OFFSET	0	-60	-88.6
					CHANNELS 3  Xrotation Yrotation Zrotation
					JOINT right_foot_ee
					{
						OFFSET	22.5	-16.5	-42.2
						CHANNELS 3  Xrotation Yrotation Zrotation
						End Site
						{
							OFFSET	1	0	0
						}
					}
				}
			}
		}
	}
}
MOTION
Frames: 16
Frame Time: 0.02
2276.1 733.621 -1591.26 -0.992271 66.3697 -8.72713 1.764 0.907335 4.84146 1.77684 0.5978 4.88922 1.82857 -0.286349 4.91724 1.79518 0.492876 4.90088 -6.61545 10.9893 -6.85146 -6.39485 25.3294 -4.74837 -0.0 0.0 -0.0 -6.17237 19.2805 -7.02804 -24.6647 -19.8491 71.336 0.460153 -12.8412 0.051782 -11.2231 -0.527805 1.33203 -0.00331447 7.83086 3.23698 -0.0 0.0 -0.0 12.7896 16.9729 -25.9361 0.368343 42.1336 -69.3701 1.9666 44.2463 -0.799543 12.2175 -0.267721 1.53477 -0.542957 19.361 11.8914 0.0 0.0 0.0 3.34246 24.2152 3.21729 -8.17124 0.249197 1.22822 17.0768 4.68108 -2.36457 -22.2415 0.0 0.0 -0.0 0.0 -0.0 7.37717 0.937521 4.47882 -8.30989 -0.251905 -1.24932 33.4806 24.4014 4.90773 -16.1714 0.0 0.0 0.0 0.0 0.0 
2273.99 734.347 -1589.59 -1.86242 65.6243 -8.15467 1.76767 0.897534 4.90896 1.78088 0.583739 4.95596 1.83206 -0.311896 4.9804 1.79778 0.477585 4.96729 -6.93063 11.0265 -6.55527 -6.75025 25.1864 -4.36113 -0.0 0.0 -0.0 -6.34305 18.7475 -7.44722 -24.2344 -19.7327 71.3208 0.462657 -12.9087 0.05234 -10.9275 -0.510588 1.29836 -0.0335175 7.44825 2.88367 -0.0 0.0 -0.0 12.2606 17.292 -24.698 0.315035 42.5944 -69.436 2.06344 45.6227 -0.867949 11.832 -0.264304 1.48565 -0.415978 19.9181 11.265 0.0 0.0 0.0 2.7892 24.31 4.17689 -7.37936 0.232748 1.10782 17.2695 5.25907 -2.38825 -21.8636 0.0 0.0 -0.0 0.0 -0.0 7.40141 1.39264 4.45433 -7.98657 -0.24551 -1.20012 33.1213 25.1103 4.90346 -16.0549 0.0 0.0 0.0 0.0 0.0 
2269.08 731.682 -1587.52 -2.0624 65.8221 -7.89872 1.74949 0.868837 4.9694 1.76305 0.551268 5.01446 1.81202 -0.356223 5.03203 1.77697 0.441934 5.02525 -7.13014 10.9607 -6.4357 -6.97153 24.9796 -4.20454 -0.0 0.0 -0.0 -6.17703 17.9543 -7.41698 -23.597 -19.8784 71.2249 0.466888 -13.0227 0.0532893 -10.9528 -0.512058 1.30125 -0.0641407 7.37026 2.65244 -0.0 0.0 -0.0 12.2651 17.5054 -24.6973 -0.0993664 42.5873 -69.5805 2.04656 45.3875 -0.855907 11.8381 -0.264361 1.48643 -0.440451 19.4961 11.2547 0.0 0.0 0.0 2.01914 24.3113 4.39435 -6.24553 0.206302 0.935831 17.2554 5.99302 -2.38552 -21.8581 0.0 0.0 -0.0 0.0 -0.0 7.5808 2.10128 4.73454 -7.5176 -0.23574 -1.12882 32.8737 26.1494 4.92967 -15.8507 0.0 0.0 0.0 0.0 0.0 
2267.68 732.31 -1587.84 -2.51186 65.0743 -7.25508 1.70473 0.858593 5.08317 1.71894 0.533834 5.12734 1.7676 -0.397726 5.13966 1.731 0.417877 5.13806 -7.3612 10.9274 -6.16286 -7.23289 24.7247 -3.87956 -0.0 0.0 -0.0 -5.99453 17.3182 -7.30787 -22.9188 -19.929 71.2177 0.469872 -13.1031 0.0539638 -10.9519 -0.512006 1.30115 -0.106204 7.27287 2.33866 -0.0 0.0 -0.0 12.2355 17.6248 -24.623 -0.753732 42.5669 -69.7431 2.02042 45.0194 -0.837361 11.8503 -0.264475 1.48798 -0.475792 18.8883 11.2406 0.0 0.0 0.0 2.07715 24.325 4.23509 -4.42364 0.15669 0.660646 17.2758 7.03567 -2.38751 -21.8569 0.0 0.0 -0.0 0.0 -0.0 7.12947 3.21399 4.76831 -7.35668 -0.232252 -1.10437 32.7237 27.8496 5.0068 -15.5043 0.0 0.0 0.0 0.0 0.0 
2260.29 737.407 -1586.68 -3.60501 64.1576 -6.32167 1.76047 0.865436 5.08061 1.77466 0.540825 5.12523 1.82371 -0.385394 5.13921 1.78713 0.429986 5.13568 -7.33817 11.3862 -4.52568 -7.27141 24.4166 -2.13583 -0.0 0.0 -0.0 -5.9864 17.701 -7.18777 -22.6715 -19.8762 71.3022 0.491628 -13.6874 0.0590039 -10.525 -0.487432 1.25237 -0.171184 7.64013 2.06874 -0.0 0.0 -0.0 12.4517 17.4438 -25.1308 -2.86675 41.8617 -69.4603 1.95741 44.1122 -0.79314 12.077 -0.266514 1.51687 -0.476702 18.9608 11.2769 0.0 0.0 0.0 2.07339 24.4959 4.31464 -5.69277 0.192176 0.852179 16.0968 5.60593 -2.23677 -23.0661 0.0 0.0 -0.0 0.0 -0.0 7.05681 4.34834 5.03619 -7.41592 -0.233545 -1.11337 33.3783 26.5532 5.00827 -16.5074 0.0 0.0 0.0 0.0 0.0 
2254.36 737.172 -1586.42 -4.60959 64.9151 -5.36974 1.86617 0.963555 4.95826 1.87961 0.646502 5.00935 1.93653 -0.250253 5.0446 1.90145 0.548561 5.02098 -7.47362 12.7344 -5.79316 -7.37432 27.8245 -3.08625 -0.0 0.0 -0.0 -5.872 17.0731 -7.18055 -21.9004 -21.4692 70.4249 0.458095 -12.7856 0.0513256 -10.8005 -0.503248 1.28387 -0.238385 8.45192 1.97094 -0.0 0.0 -0.0 12.548 17.2852 -25.3612 -3.97712 40.0002 -69.1358 1.75616 41.018 -0.656961 13.8782 -0.278657 1.7466 -0.604562 19.1484 12.2206 0.0 0.0 0.0 1.58535 24.5946 4.85312 -4.52184 0.159587 0.675438 15.7279 4.234 -2.1912 -23.2997 0.0 0.0 -0.0 0.0 -0.0 7.39598 3.58963 5.15507 -7.65098 -0.238578 -1.14909 33.0192 25.7459 4.92478 -17.2264 0.0 0.0 0.0 0.0 0.0 
2244.77 733.187 -1584.91 -5.60474 65.0153 -4.51981 2.0273 0.944803 4.82878 2.04004 0.635997 4.87895 2.09399 -0.223963 4.91504 2.06072 0.554139 4.8889 -7.27582 13.787 -5.53742 -7.16947 29.5957 -2.65366 -0.0 0.0 -0.0 -5.76555 16.4487 -7.18044 -20.4908 -22.1334 69.9375 0.419264 -11.7332 0.0430799 -10.3317 -0.476423 1.23022 -0.21571 8.82975 2.27431 -0.0 0.0 -0.0 12.6726 15.9166 -25.7109 -5.73969 38.4521 -68.9113 1.64323 39.1428 -0.58424 14.6991 -0.281794 1.85141 -0.665327 19.8924 12.9399 0.0 0.0 0.0 0.366744 24.9227 5.72234 -3.34012 0.123041 0.497765 17.4245 3.69037 -2.41136 -25.4513 0.0 0.0 -0.0 0.0 -0.0 6.7998 4.46651 5.77854 -7.7187 -0.240001 -1.15938 35.0023 25.7879 5.14443 -17.6668 0.0 0.0 0.0 0.0 0.0 
2238.85 734.283 -1584.06 -6.19977 66.4613 -3.85697 2.08268 0.693245 4.72293 2.095 0.391656 4.75737 2.12687 -0.441441 4.75301 2.0955 0.313872 4.76312 -6.27662 13.8535 -5.59537 -6.05638 29.7177 -2.99088 -0.0 0.0 -0.0 -5.60738 15.3855 -7.208 -18.7398 -23.0365 69.3956 0.480676 -13.3936 0.0564397 -10.5445 -0.488545 1.2546 -0.328084 9.39538 1.78605 -0.0 0.0 -0.0 12.8018 17.4198 -25.9425 -8.1861 37.6253 -68.5042 1.50328 36.6719 -0.498233 14.8177 -0.282122 1.86654 -0.677285 19.8839 13.0175 0.0 0.0 0.0 -0.229197 24.7427 6.10847 -1.8115 0.0703377 0.269093 17.5055 2.94366 -2.42391 -26.9523 0.0 0.0 -0.0 0.0 -0.0 7.0914 3.9912 5.92742 -8.32862 -0.252268 -1.25218 36.2431 24.5239 5.20738 -18.1947 0.0 0.0 0.0 0.0 0.0 
2233.96 738.041 -1582.15 -5.88161 66.1812 -4.30076 1.9954 0.72308 4.80664 2.00815 0.416123 4.8428 2.04298 -0.439263 4.84076 2.01045 0.329831 4.84942 -7.55351 14.1476 -5.50234 -7.48158 30.2528 -2.45633 -0.0 0.0 -0.0 -5.23691 14.9766 -6.70513 -17.7378 -23.5699 69.0121 0.46159 -12.8799 0.0521019 -10.4266 -0.481816 1.2411 -0.432218 9.60219 1.20386 -0.0 0.0 -0.0 12.7316 15.8554 -25.8499 -9.85592 36.6997 -68.5182 1.42167 35.1533 -0.450365 15.7724 -0.283629 1.98847 -0.841676 19.5435 13.9953 0.0 0.0 0.0 -0.710059 25.0055 6.48938 -2.17013 0.0832506 0.322618 17.0678 1.81099 -2.37194 -27.3095 0.0 0.0 -0.0 0.0 -0.0 6.53527 4.05468 6.32443 -7.59811 -0.237458 -1.14105 36.8571 23.9234 5.23891 -18.917 0.0 0.0 0.0 0.0 0.0 
2230.89 740.303 -1582.07 -6.37501 67.4598 -3.67548 1.81754 0.605418 4.79624 1.83029 0.299357 4.82495 1.85563 -0.567228 4.80089 1.82354 0.197188 4.83019 -7.94645 13.713 -5.2746 -7.92327 29.2983 -2.21093 -0.0 0.0 -0.0 -5.09245 15.1986 -6.41213 -15.3563 -25.0979 67.694 0.480056 -13.377 0.0562961 -10.5282 -0.48761 1.25273 -0.628248 11.3738 0.702371 -0.0 0.0 -0.0 12.6313 16.5939 -25.5869 -12.4106 36.284 -68.4247 1.34722 33.7163 -0.408259 16.5295 -0.28338 2.08518 -1.06824 19.1837 15.3977 0.0 0.0 0.0 -1.19301 24.806 6.7925 -0.68069 0.027429 0.100858 17.4847 0.7152 -2.43032 -28.767 0.0 0.0 -0.0 0.0 -0.0 7.20282 1.90358 6.43905 -9.25764 -0.269051 -1.39374 36.9054 23.7794 5.23646 -18.8583 0.0 0.0 0.0 0.0 0.0 
2224.34 739.219 -1581.42 -5.92216 68.4871 -4.14667 1.63884 0.551875 4.80542 1.65165 0.24534 4.83072 1.67302 -0.636918 4.79491 1.64097 0.127425 4.83526 -8.32105 14.1501 -4.70765 -8.36403 29.7364 -1.43161 -0.0 0.0 -0.0 -5.53848 15.8507 -6.97255 -13.469 -26.2389 66.568 0.605239 -16.6898 0.0887802 -10.6022 -0.491846 1.2612 -0.732732 11.9967 0.306719 -0.0 0.0 -0.0 12.4742 15.2522 -25.2773 -14.0292 35.0646 -68.0802 1.27052 32.1841 -0.366541 17.1489 -0.282225 2.16428 -1.14045 19.0259 15.8295 0.0 0.0 0.0 -2.67477 24.8001 7.48755 -0.114784 0.00470968 0.0169851 18.072 -0.500178 -2.512 -29.2729 0.0 0.0 -0.0 0.0 -0.0 6.86484 1.48989 6.68195 -10.0145 -0.281026 -1.50926 36.9528 23.2074 5.21277 -18.7186 0.0 0.0 0.0 0.0 0.0 
2220.72 738.219 -1581.12 -5.63148 68.4128 -4.34265 1.55609 0.497825 4.82793 1.56903 0.189972 4.84976 1.58601 -0.702339 4.8025 1.55384 0.0640137 4.85305 -9.00729 14.0792 -4.50427 -9.12984 29.4928 -1.04754 -0.0 0.0 -0.0 -5.29216 15.3178 -6.70897 -11.8945 -27.1681 66.005 0.562134 -15.5608 0.0768074 -10.5714 -0.490084 1.25768 -0.849431 12.7944 -0.0851618 -0.0 0.0 -0.0 12.3828 16.6081 -25.0124 -16.4679 35.4927 -67.8021 1.2116 30.9706 -0.335684 17.1943 -0.282107 2.17007 -1.14433 19.0663 15.8727 0.0 0.0 0.0 -3.50968 24.756 7.64031 0.445962 -0.0186204 -0.0659027 18.627 -1.4553 -2.58873 -29.7051 0.0 0.0 -0.0 0.0 -0.0 6.85387 0.824184 6.92728 -10.3603 -0.28599 -1.5621 37.3714 22.8514 5.23689 -18.5183 0.0 0.0 0.0 0.0 0.0 
2217.01 739.288 -1580.34 -5.5967 67.892 -4.28759 1.48603 0.495419 4.8374 1.49903 0.186969 4.85906 1.51602 -0.712903 4.81023 1.48375 0.0547971 4.86233 -9.49799 14.0495 -4.31295 -9.67715 29.3269 -0.72487 -0.0 0.0 -0.0 -5.31304 15.2195 -6.76834 -10.3685 -27.8615 65.2723 0.623365 -17.1606 0.0940569 -10.5891 -0.491098 1.25971 -0.92572 13.1967 -0.389392 -0.0 0.0 -0.0 12.2451 16.0029 -24.7216 -17.6088 35.0606 -67.8778 1.12641 29.1601 -0.292997 17.4967 -0.281202 2.20868 -1.25041 18.7596 16.479 0.0 0.0 0.0 -3.86419 25.0646 7.81566 0.954256 -0.0404695 -0.140841 19.0668 -1.94645 -2.64792 -30.0518 0.0 0.0 -0.0 0.0 -0.0 6.90636 0.298954 6.89932 -10.7826 -0.291617 -1.62664 37.3364 22.5381 5.2184 -18.6361 0.0 0.0 0.0 0.0 0.0 
2213.36 739.471 -1580.23 -6.49828 67.4111 -3.2384 1.58146 0.475486 4.81383 1.59433 0.168571 4.83427 1.60933 -0.718648 4.78364 1.57742 0.0449403 4.83699 -9.83365 14.0389 -4.14596 -10.0516 29.2078 -0.467433 -0.0 0.0 -0.0 -5.32163 15.0376 -6.82902 -9.07491 -28.416 64.6005 0.682287 -18.6745 0.112186 -10.6128 -0.492454 1.26242 -0.978193 13.4326 -0.615099 -0.0 0.0 -0.0 12.2034 15.4891 -24.646 -18.6017 34.6346 -68.0014 1.04201 27.3014 -0.253072 17.7013 -0.280475 2.23481 -1.3229 18.4838 16.868 0.0 0.0 0.0 -4.18352 25.2627 7.96222 1.29811 -0.0556272 -0.191426 19.2772 -2.2819 -2.67703 -30.2892 0.0 0.0 -0.0 0.0 -0.0 6.91758 -0.0592431 6.87858 -10.7811 -0.291598 -1.62641 37.4462 22.3147 5.21858 -18.6832 0.0 0.0 0.0 0.0 0.0 
2210.5 738.373 -1579.84 -6.9739 65.8157 -2.60139 1.6722 0.703599 4.72865 1.68455 0.401627 4.76373 1.71871 -0.466679 4.75781 1.68725 0.289703 4.77182 -9.09171 13.5975 -4.17807 -9.21647 28.371 -0.825492 -0.0 0.0 -0.0 -5.24478 13.7156 -7.03645 -5.48401 -28.5125 62.98 0.870936 -23.3369 0.179865 -10.6641 -0.495396 1.26828 -1.06982 14.4992 -0.717456 -0.0 0.0 -0.0 11.7461 11.8565 -23.6935 -18.9957 35.8404 -68.2941 0.82685 22.2737 -0.162777 17.5188 -0.281128 2.21151 -1.30883 18.5965 16.8165 0.0 0.0 0.0 -5.70883 26.0013 8.0908 1.61278 -0.0697648 -0.23764 21.2725 -2.73583 -2.92929 -30.1053 0.0 0.0 -0.0 0.0 -0.0 7.40085 -0.267245 6.64608 -11.2782 -0.297615 -1.70244 37.2685 22.7774 5.22317 -19.8674 0.0 0.0 0.0 0.0 0.0 
2212.28 733.646 -1580.75 -7.92329 65.2635 -1.54579 1.57778 1.13133 4.75153 1.58995 0.827046 4.81369 1.66111 -0.0607338 4.88368 1.62855 0.710398 4.83224 -8.83213 13.1758 -4.66626 -8.90894 27.9041 -1.48628 -0.0 0.0 -0.0 -5.46348 13.67 -7.41611 -3.3018 -28.4457 62.2236 1.06884 -27.8992 0.265501 -10.8007 -0.503258 1.28389 -1.30241 15.3298 -1.78747 -0.0 0.0 -0.0 11.7592 11.3669 -23.7284 -17.835 36.6416 -69.6532 0.497314 13.8397 -0.0603567 17.9535 -0.279449 2.26701 -1.43855 17.8254 17.4018 0.0 0.0 0.0 -4.96495 26.8783 7.82624 2.1294 -0.0935266 -0.313346 22.9418 -2.99978 -3.13467 -30.1057 0.0 0.0 -0.0 0.0 -0.0 8.26087 1.28271 6.1393 -11.1527 -0.296159 -1.68325 37.8338 24.283 5.3544 -20.0423 0.0 0.0 0.0 0.0 0.0 
